<?xml version="1.0" standalone="no"?>
<!DOCTYPE svg PUBLIC "-//W3C//DTD SVG 20010904//EN"
 "http://www.w3.org/TR/2001/REC-SVG-20010904/DTD/svg10.dtd">
<svg version="1.0" xmlns="http://www.w3.org/2000/svg"
 width="500.000000pt" height="500.000000pt" viewBox="0 0 500.000000 500.000000"
 preserveAspectRatio="xMidYMid meet">

<g transform="translate(0.000000,500.000000) scale(0.100000,-0.100000)"
fill="#000000" stroke="none">
<path d="M2266 4528 c-380 -43 -777 -214 -1071 -460 -725 -608 -943 -1634
-525 -2469 296 -591 829 -991 1480 -1111 167 -31 533 -31 700 0 491 90 927
346 1234 725 651 805 600 1961 -118 2706 -328 339 -776 558 -1248 610 -113 13
-339 12 -452 -1z m494 -149 c115 -13 289 -57 407 -102 507 -196 898 -581 1096
-1077 43 -107 97 -295 110 -382 6 -37 5 -38 -26 -38 l-32 0 -18 93 c-40 205
-146 458 -272 647 -220 331 -564 594 -944 720 -811 270 -1699 -54 -2148 -785
-104 -168 -194 -398 -231 -586 l-17 -89 -32 0 c-31 0 -32 1 -26 38 24 157 114
422 196 572 63 116 170 270 259 370 275 312 676 537 1088 611 149 26 393 30
590 8z m-407 -176 c3 -16 4 -31 2 -34 -2 -3 -43 -11 -90 -18 l-85 -13 0 -32
c0 -53 7 -55 89 -40 41 8 75 13 76 12 1 -2 5 -15 9 -30 7 -30 6 -31 -88 -47
-33 -6 -61 -13 -63 -15 -2 -2 -1 -20 2 -40 8 -42 14 -43 122 -22 l72 13 6 -29
c4 -17 3 -33 -1 -37 -5 -4 -56 -15 -114 -25 -58 -9 -114 -19 -126 -21 -19 -4
-22 6 -52 177 -17 100 -30 184 -28 185 5 6 206 41 237 42 21 1 28 -4 32 -26z
m504 -6 c7 -7 -37 -247 -51 -281 -21 -49 -50 -69 -101 -69 -25 0 -48 2 -51 6
-4 3 -4 21 0 40 5 29 10 34 30 30 35 -7 51 25 71 142 27 158 22 148 63 142 19
-4 36 -8 39 -10z m-875 -235 l77 -162 -29 -15 c-16 -8 -34 -15 -39 -15 -6 0
-24 29 -40 65 l-29 64 -63 -28 c-35 -16 -65 -33 -67 -39 -2 -6 11 -38 27 -71
17 -33 31 -62 31 -65 0 -4 -58 -26 -70 -26 -6 0 -160 310 -160 323 0 6 54 37
64 37 3 0 20 -28 37 -62 17 -35 33 -64 34 -66 1 -2 32 12 68 29 l66 33 -23 45
c-40 78 -40 88 -9 105 15 8 32 14 38 12 5 -1 44 -75 87 -164z m1239 123 c76
-49 92 -142 44 -241 -32 -64 -79 -104 -135 -111 -83 -11 -181 54 -195 131 -15
76 48 205 116 239 46 24 120 16 170 -18z m357 -225 c110 -93 131 -154 70 -205
-31 -26 -45 -27 -94 -8 -16 6 -15 3 4 -21 39 -50 20 -114 -40 -135 -42 -15
-93 9 -186 89 l-73 61 48 57 c27 32 79 94 117 140 38 45 72 82 76 82 3 0 39
-27 78 -60z m-2073 16 c16 -24 15 -26 -19 -58 l-36 -33 95 -108 c52 -60 95
-112 95 -116 0 -4 -12 -18 -26 -32 l-25 -24 -42 45 c-23 25 -69 76 -102 113
l-60 68 -38 -32 -38 -32 -17 24 c-9 13 -17 27 -17 31 0 12 189 177 202 178 7
0 20 -11 28 -24z m1192 -156 c178 -29 400 -123 539 -228 150 -113 285 -274
368 -440 35 -69 96 -236 96 -262 0 -7 -12 -10 -31 -8 -29 3 -32 7 -58 88 -112
344 -394 627 -746 744 -225 75 -505 75 -730 0 -352 -117 -634 -400 -746 -744
-26 -81 -29 -85 -58 -88 -39 -4 -39 3 0 115 112 317 335 570 624 709 109 52
242 97 340 113 72 12 329 13 402 1z m72 -638 c58 -29 75 -63 80 -153 l3 -79
87 0 c104 0 164 -24 196 -80 19 -33 20 -52 20 -400 0 -349 -1 -367 -20 -400
-12 -19 -36 -43 -55 -55 -34 -19 -50 -20 -580 -20 -607 0 -585 -2 -629 68 -20
33 -21 46 -21 408 0 353 1 376 20 406 30 50 72 66 183 71 l97 4 0 62 c0 78 30
142 80 168 31 16 62 18 270 18 204 0 240 -2 269 -18z m-1688 -22 c14 -8 19
-21 19 -55 0 -49 -16 -65 -66 -65 -56 0 -86 69 -47 112 18 20 64 24 94 8z
m2931 -7 c22 -20 23 -70 1 -95 -18 -20 -64 -24 -94 -8 -26 14 -27 94 -1 109
26 16 73 13 94 -6z m-3306 -943 c126 -568 507 -1040 1032 -1279 754 -343 1640
-142 2171 494 190 228 335 528 388 802 l18 93 32 0 c31 0 32 -1 26 -37 -13
-88 -67 -276 -110 -383 -141 -354 -383 -656 -696 -868 -133 -90 -189 -120
-322 -177 -584 -249 -1263 -188 -1784 159 -338 225 -580 521 -726 889 -43 109
-94 289 -108 380 -6 38 -6 38 25 35 31 -3 31 -4 54 -108z m683 20 c56 -176
165 -345 307 -480 312 -296 750 -395 1168 -263 343 108 637 400 747 743 26 81
29 85 58 88 19 2 31 -1 31 -8 0 -30 -66 -204 -107 -282 -180 -341 -520 -587
-896 -648 -80 -13 -314 -13 -394 0 -446 73 -829 398 -973 827 -16 50 -30 96
-30 103 0 7 12 10 31 8 29 -3 32 -7 58 -88z m-308 -80 c14 -8 19 -21 19 -55 0
-49 -16 -65 -66 -65 -56 0 -86 69 -47 112 18 20 64 24 94 8z m2931 -7 c22 -20
23 -70 1 -95 -18 -20 -64 -24 -94 -8 -26 14 -27 94 -1 109 26 16 73 13 94 -6z
m-202 -187 c64 -97 81 -117 126 -141 l52 -28 -16 -34 c-9 -18 -20 -33 -26 -33
-6 0 -31 12 -56 26 -41 24 -58 27 -175 31 -71 3 -134 9 -138 13 -9 8 16 64 33
75 5 3 46 1 91 -5 45 -6 83 -10 85 -8 2 2 -21 35 -51 72 -30 38 -55 70 -55 72
0 8 43 74 48 74 4 0 41 -51 82 -114z m-2521 29 c97 -50 129 -193 54 -242 -23
-15 -26 -15 -51 10 l-26 26 22 24 c28 29 28 57 1 91 -15 19 -30 26 -55 26 -64
0 -146 -57 -158 -110 -8 -31 26 -89 51 -91 27 -2 26 -2 54 5 23 5 28 1 40 -25
11 -28 10 -33 -6 -45 -10 -8 -40 -14 -66 -14 -57 0 -102 33 -130 95 -45 99 -5
192 106 245 48 23 125 26 164 5z m2306 -401 c55 -64 109 -127 119 -141 l20
-26 -38 -33 -37 -32 -147 49 c-80 27 -148 49 -150 49 -2 0 37 -46 87 -102 l91
-102 -27 -23 c-16 -12 -31 -22 -35 -23 -8 0 -231 255 -236 270 -2 5 14 24 35
43 l38 35 139 -49 c77 -27 140 -48 142 -47 1 2 -35 46 -81 98 l-84 95 26 27
c15 16 29 28 32 27 3 0 51 -52 106 -115z m-2007 31 c131 -55 150 -193 41 -303
-72 -73 -150 -86 -222 -36 -54 38 -90 106 -82 154 14 76 76 154 145 184 45 20
72 20 118 1z m347 -237 l57 -22 -6 -145 c-6 -135 -6 -144 9 -126 9 11 48 64
88 118 78 107 74 105 152 72 l32 -13 -59 -175 -59 -175 -35 11 c-19 6 -34 16
-34 22 0 6 18 63 40 125 22 62 39 114 37 117 -3 2 -39 -43 -82 -99 -43 -57
-82 -107 -86 -112 -4 -4 -23 -3 -43 4 l-36 12 -1 141 -1 142 -42 -123 c-23
-68 -44 -124 -46 -125 -3 0 -19 4 -37 10 l-32 12 54 163 c65 193 63 188 69
188 2 0 30 -10 61 -22z m1210 -158 c69 -82 125 -151 125 -153 0 -2 -18 -10
-41 -17 -39 -13 -41 -13 -63 15 l-23 28 -64 -25 c-62 -25 -64 -27 -67 -65 -3
-35 -7 -41 -38 -52 -20 -7 -37 -11 -40 -9 -2 3 -5 91 -6 197 l-3 193 45 19
c25 10 46 18 47 18 1 1 59 -66 128 -149z m-494 17 c39 -26 63 -85 54 -128 -15
-66 -78 -109 -160 -109 l-45 0 0 -55 0 -55 -40 0 c-36 0 -39 2 -44 33 -3 17
-7 101 -9 185 l-5 152 108 0 c95 0 111 -3 141 -23z"/>
<path d="M3105 4041 c-67 -28 -109 -160 -67 -210 27 -33 72 -37 106 -10 60 47
86 159 46 199 -11 11 -24 20 -29 20 -5 0 -15 2 -23 4 -7 3 -22 1 -33 -3z"/>
<path d="M3486 3786 l-26 -34 42 -31 c23 -17 49 -31 58 -31 21 0 40 19 40 40
0 15 -68 90 -82 90 -3 0 -17 -15 -32 -34z"/>
<path d="M3394 3675 l-27 -36 34 -29 c60 -52 109 -53 109 -2 0 18 -10 37 -27
53 -59 53 -59 53 -89 14z"/>
<path d="M2260 3000 c-16 -16 -20 -33 -20 -85 0 -62 1 -65 24 -65 19 0 25 7
31 36 3 20 18 47 32 60 25 23 32 24 173 24 144 0 148 -1 173 -25 14 -14 28
-41 31 -60 6 -29 11 -35 31 -35 24 0 25 2 25 69 0 103 4 101 -262 101 -205 0
-219 -1 -238 -20z"/>
<path d="M2380 2870 c0 -19 7 -20 120 -20 113 0 120 1 120 20 0 19 -7 20 -120
20 -113 0 -120 -1 -120 -20z"/>
<path d="M1950 2740 c-18 -18 -20 -31 -18 -102 l3 -81 75 -41 c94 -52 167 -81
250 -101 90 -21 120 -20 120 4 0 10 9 29 19 42 18 22 27 24 111 24 84 0 93 -2
111 -24 10 -13 19 -32 19 -42 0 -14 7 -19 29 -19 73 0 288 82 374 142 26 18
27 23 27 102 0 68 -3 86 -18 99 -17 15 -70 17 -550 17 -522 0 -532 0 -552 -20z"/>
<path d="M1930 2239 c0 -206 1 -220 20 -239 19 -19 33 -20 550 -20 517 0 531
1 550 20 19 19 20 33 20 235 0 118 -2 215 -5 215 -3 0 -40 -17 -83 -39 -93
-46 -185 -77 -271 -90 -35 -6 -64 -12 -65 -13 -1 -2 -6 -16 -12 -33 -13 -41
-46 -55 -130 -55 -81 0 -124 23 -124 66 0 26 -7 28 -95 38 -67 8 -184 48 -278
95 l-77 39 0 -219z"/>
<path d="M2460 2355 l0 -45 50 0 50 0 0 45 0 45 -50 0 -50 0 0 -45z"/>
<path d="M1474 1418 c-74 -65 -88 -143 -32 -182 46 -32 100 -9 150 65 37 55
37 100 2 128 -39 30 -77 27 -120 -11z"/>
<path d="M2997 1098 c3 -46 7 -85 9 -87 5 -6 84 21 90 30 4 7 -92 139 -102
139 -2 0 -1 -37 3 -82z"/>
<path d="M2503 1094 c-15 -7 -18 -120 -4 -129 16 -9 91 6 107 22 17 18 18 63
1 87 -13 17 -81 30 -104 20z"/>
</g>
</svg>
